<?xml version="1.0" standalone="no"?>
<!DOCTYPE svg PUBLIC "-//W3C//DTD SVG 20010904//EN"
 "http://www.w3.org/TR/2001/REC-SVG-20010904/DTD/svg10.dtd">
<svg version="1.0" xmlns="http://www.w3.org/2000/svg"
 width="1142.000000pt" height="1142.000000pt" viewBox="0 0 1142.000000 1142.000000"
 preserveAspectRatio="xMidYMid meet">
<metadata>
Created by potrace 1.11, written by Peter Selinger 2001-2013
</metadata>
<g transform="translate(0.000000,1142.000000) scale(0.100000,-0.100000)"
fill="#000000" stroke="none">
<path d="M396 10295 c-184 -51 -332 -200 -381 -385 -22 -83 -22 -8317 0 -8400
50 -189 196 -335 385 -385 47 -13 231 -15 1220 -14 641 1 1145 5 1120 9 -191
34 -347 169 -412 358 l-23 67 0 3015 0 3015 23 67 c56 162 169 276 338 340
l59 23 2948 3 c3244 2 3024 7 3153 -59 123 -62 213 -166 263 -303 l26 -71 3
-932 3 -933 -2033 0 c-1751 0 -2041 -2 -2088 -15 -187 -50 -335 -198 -385
-385 -22 -81 -22 -1418 0 -1500 50 -189 196 -335 385 -385 47 -13 343 -15
2088 -15 l2033 0 -3 -932 -3 -933 -26 -71 c-66 -182 -209 -310 -389 -348 -57
-13 74 -15 1095 -15 1266 -1 1211 -3 1335 56 73 35 197 160 233 235 61 128 57
-205 57 4308 0 4513 4 4180 -57 4308 -36 75 -160 200 -233 235 -129 62 331 57
-5430 56 -4385 -1 -5263 -3 -5304 -14z"/>
</g>
</svg>
