<svg id="Livello_1" data-name="Livello 1" xmlns="http://www.w3.org/2000/svg" viewBox="0 0 570.91 460"><defs><style>.cls-1{fill:#fff;}</style></defs><title>logo</title><path class="cls-1" d="M3019.77,1578.6h0v-230a26.58,26.58,0,0,0-26.5-26.5H2475.36a26.58,26.58,0,0,0-26.5,26.5v407a26.57,26.57,0,0,0,26.5,26.5h115a26.57,26.57,0,0,1-26.5-26.5v-292a26.58,26.58,0,0,1,26.5-26.5h287.91a26.58,26.58,0,0,1,26.5,26.5v88.5H2705.36a26.58,26.58,0,0,0-26.5,26.5v62a26.57,26.57,0,0,0,26.5,26.5h199.41v88.5a26.58,26.58,0,0,1-26.5,26.5h115a26.58,26.58,0,0,0,26.5-26.5v-115h0Z" transform="translate(-2448.86 -1322.1)"/></svg>